# Blender v2.91.0 OBJ File: 'staircase.blend'
# www.blender.org
mtllib staircase.mtl
o Stair.004_Plane.005
v -1.000000 2.400000 -3.000000
v 1.000000 2.400000 -3.000000
v -1.000000 2.400000 -4.000000
v 1.000000 2.400000 -4.000000
v -1.000000 1.800000 -3.000000
v 1.000000 1.800000 -3.000000
v -1.000000 2.400000 -3.000000
v 1.000000 2.400000 -3.000000
v -1.000000 3.000000 -4.000000
v 1.000000 3.000000 -4.000000
v -1.000000 3.000000 -5.000000
v 1.000000 3.000000 -5.000000
v -1.000000 2.400000 -4.000000
v 1.000000 2.400000 -4.000000
v -1.000000 3.000000 -4.000000
v 1.000000 3.000000 -4.000000
v -1.000000 0.600000 0.000000
v 1.000000 0.600000 0.000000
v -1.000000 0.600000 -1.000000
v 1.000000 0.600000 -1.000000
v -1.000000 0.000000 0.000000
v 1.000000 0.000000 0.000000
v -1.000000 0.600000 0.000000
v 1.000000 0.600000 0.000000
v -1.000000 1.200000 -1.000000
v 1.000000 1.200000 -1.000000
v -1.000000 1.200000 -2.000000
v 1.000000 1.200000 -2.000000
v -1.000000 0.600000 -1.000000
v 1.000000 0.600000 -1.000000
v -1.000000 1.200000 -1.000000
v 1.000000 1.200000 -1.000000
v -1.000000 1.800000 -2.000000
v 1.000000 1.800000 -2.000000
v -1.000000 1.800000 -3.000000
v 1.000000 1.800000 -3.000000
v -1.000000 1.200000 -2.000000
v 1.000000 1.200000 -2.000000
v -1.000000 1.800000 -2.000000
v 1.000000 1.800000 -2.000000
vt 0.000000 0.000000
vt 1.000000 0.000000
vt 1.000000 1.000000
vt 0.000000 1.000000
vt 0.000000 0.000000
vt 1.000000 0.000000
vt 1.000000 1.000000
vt 0.000000 1.000000
vt 0.000000 0.000000
vt 1.000000 0.000000
vt 1.000000 1.000000
vt 0.000000 1.000000
vt 0.000000 0.000000
vt 1.000000 0.000000
vt 1.000000 1.000000
vt 0.000000 1.000000
vt 0.000000 0.000000
vt 1.000000 0.000000
vt 1.000000 1.000000
vt 0.000000 1.000000
vt 0.000000 0.000000
vt 1.000000 0.000000
vt 1.000000 1.000000
vt 0.000000 1.000000
vt 0.000000 0.000000
vt 1.000000 0.000000
vt 1.000000 1.000000
vt 0.000000 1.000000
vt 0.000000 0.000000
vt 1.000000 0.000000
vt 1.000000 1.000000
vt 0.000000 1.000000
vt 0.000000 0.000000
vt 1.000000 0.000000
vt 1.000000 1.000000
vt 0.000000 1.000000
vt 0.000000 0.000000
vt 1.000000 0.000000
vt 1.000000 1.000000
vt 0.000000 1.000000
vn 0.0000 1.0000 0.0000
vn 0.0000 0.0000 1.0000
usemtl None
s off
f 1/1/1 2/2/1 4/3/1 3/4/1
f 5/5/2 6/6/2 8/7/2 7/8/2
f 9/9/1 10/10/1 12/11/1 11/12/1
f 13/13/2 14/14/2 16/15/2 15/16/2
f 17/17/1 18/18/1 20/19/1 19/20/1
f 21/21/2 22/22/2 24/23/2 23/24/2
f 25/25/1 26/26/1 28/27/1 27/28/1
f 29/29/2 30/30/2 32/31/2 31/32/2
f 33/33/1 34/34/1 36/35/1 35/36/1
f 37/37/2 38/38/2 40/39/2 39/40/2
